<svg width="82" height="11" viewBox="0 0 82 11" fill="none" xmlns="http://www.w3.org/2000/svg">
<g clip-path="url(#clip0_1241_142)">
<path fill-rule="evenodd" clip-rule="evenodd" d="M80.5079 8.3893C79.7702 8.3893 79.1723 8.97369 79.1723 9.69465C79.1723 10.4156 79.7702 11.0001 80.5079 11.0001C81.2455 11.0001 81.8435 10.4156 81.8435 9.69465C81.8435 8.97369 81.2455 8.3893 80.5079 8.3893ZM76.3717 10.7281L73.6399 7.39826C73.6097 7.36138 73.5489 7.38229 73.5489 7.42946V10.6446C73.5489 10.7275 73.4802 10.7946 73.3954 10.7946H71.669C71.5842 10.7946 71.5155 10.7172 71.5155 10.6343V0.150117C71.5155 0.067232 71.5842 0.00010505 71.669 0.00010505H73.3954C73.4802 0.00010505 73.5489 0.067232 73.5489 0.150117V6.32548C73.5489 6.37307 73.6104 6.39377 73.6404 6.35626L76.214 3.1389C76.2431 3.10255 76.2877 3.08133 76.3349 3.08133H78.4724C78.5586 3.08133 78.6063 3.17913 78.5519 3.24447L75.5192 6.88666L78.6455 10.621C78.7002 10.6863 78.6526 10.7843 78.5663 10.7843H76.4914C76.4449 10.7843 76.4008 10.7636 76.3717 10.7281ZM70.3701 3.08133V4.982C70.3701 5.06898 70.2948 5.13653 70.2059 5.13149C69.1804 5.07276 67.9741 5.56744 67.9741 7.10233V10.6343C67.9741 10.7172 67.9053 10.7939 67.8206 10.7939L66.0942 10.7937C66.0094 10.7937 65.9406 10.7172 65.9406 10.6343V3.23134C65.9406 3.14846 66.0094 3.08133 66.0942 3.08133H67.8206C67.9053 3.08133 67.9741 3.14846 67.9741 3.23134V4.16891C67.9741 4.22186 68.0467 4.23814 68.0707 4.19076C68.4995 3.35099 69.3423 2.97229 70.2092 2.93111C70.2976 2.9269 70.3701 2.99477 70.3701 3.08133ZM62.7661 6.93278C62.7661 5.68489 61.836 4.80678 60.6223 4.80678C59.4244 4.80678 58.4943 5.68489 58.4943 6.93278C58.4943 8.18077 59.4244 9.05889 60.6223 9.05889C61.836 9.05889 62.7661 8.18077 62.7661 6.93278ZM56.4608 6.93278C56.4608 4.63733 58.3051 2.86556 60.6223 2.86556C62.9394 2.86556 64.7995 4.63733 64.7995 6.93278C64.7995 9.22833 62.9394 11 60.6223 11C58.3051 11 56.4608 9.22833 56.4608 6.93278ZM56.1374 3.21159L53.7076 10.6798C53.6873 10.7421 53.6282 10.7918 53.5613 10.7918L51.8486 10.7916C51.781 10.7916 51.7213 10.7412 51.7016 10.6779L50.3335 6.2739C50.3187 6.22663 50.2502 6.22663 50.2355 6.2739L48.8673 10.6779C48.8477 10.7412 48.7901 10.7912 48.7225 10.7912L47.0077 10.7908C46.9408 10.7908 46.8816 10.7421 46.8614 10.6798L44.4315 3.21159C44.4105 3.14709 44.4598 3.08133 44.529 3.08133H46.4318C46.5008 3.08133 46.5613 3.12629 46.5798 3.19132L47.8409 7.64281C47.8546 7.69124 47.9246 7.69187 47.9393 7.64376L49.2903 3.18869C49.3097 3.12503 49.3695 3.08133 49.4375 3.08133H51.1313C51.1994 3.08133 51.2592 3.12503 51.2786 3.18879L52.6297 7.65857C52.6443 7.70679 52.7145 7.70616 52.7281 7.65762L53.9892 3.19142C54.0076 3.12639 54.0682 3.08133 54.1372 3.08133H56.0399C56.1091 3.08133 56.1585 3.14709 56.1374 3.21159ZM42.0207 6.20877C42.0538 6.20877 42.0787 6.17831 42.0707 6.1469C41.8014 5.08285 40.9661 4.65267 40.1309 4.65267C39.1837 4.65267 38.4994 5.08505 38.1824 5.84803C38.1431 5.94247 38.1095 6.04206 38.0816 6.14648C38.0733 6.17799 38.0982 6.20877 38.1315 6.20877H42.0207ZM43.3826 9.51617C43.4593 9.56722 43.473 9.67311 43.4108 9.74056C42.6681 10.5465 41.6033 10.9942 40.2885 10.9942C37.6403 10.9942 35.9695 9.22833 35.9695 6.93278C35.9695 4.63733 37.6561 2.86556 40.1309 2.86556C42.4639 2.86556 44.1189 4.66811 44.1189 6.93278C44.1189 7.17828 44.0968 7.40204 44.0618 7.62233C44.0501 7.69544 43.9857 7.74933 43.9099 7.74933H38.1657C38.1316 7.74933 38.1065 7.78169 38.1164 7.81362C38.4183 8.78439 39.2711 9.19755 40.32 9.19755C40.9684 9.19755 41.51 8.97863 41.8748 8.65234C41.9273 8.60539 42.0056 8.5995 42.0645 8.63869L43.3826 9.51617ZM34.6945 6.03922V10.6343C34.6945 10.7172 34.6258 10.7891 34.541 10.7891L32.8146 10.7889C32.7298 10.7889 32.6611 10.7172 32.6611 10.6343V6.17789C32.6611 5.269 32.1882 4.71433 31.3369 4.71433C30.4384 4.71433 29.8709 5.29978 29.8709 6.45522V10.6343C29.8709 10.7172 29.8022 10.7883 29.7174 10.7883L27.991 10.7881C27.9062 10.7881 27.8375 10.7172 27.8375 10.6343V6.17789C27.8375 5.269 27.3646 4.71433 26.5134 4.71433C25.6465 4.71433 25.0316 5.29978 25.0316 6.45522V10.6343C25.0316 10.7172 24.963 10.7877 24.8782 10.7877L23.1517 10.7874C23.0669 10.7874 22.9983 10.7172 22.9983 10.6343V3.23134C22.9983 3.14846 23.0669 3.08133 23.1517 3.08133H24.8782C24.963 3.08133 25.0316 3.14846 25.0316 3.23134V3.74241C25.0316 3.79052 25.0937 3.81038 25.1237 3.77224C25.5727 3.2013 26.281 2.86556 27.2227 2.86556C28.1707 2.86556 28.8814 3.24248 29.3261 3.91185C29.3459 3.94169 29.3892 3.94284 29.4106 3.91417C29.902 3.25739 30.675 2.86556 31.7152 2.86556C33.5123 2.86556 34.6945 4.11355 34.6945 6.03922ZM19.5997 6.93278C19.5997 5.63867 18.6698 4.76055 17.4086 4.76055C16.1633 4.76055 15.2333 5.63867 15.2333 6.93278C15.2333 8.22689 16.1633 9.10511 17.4086 9.10511C18.6698 9.10511 19.5997 8.22689 19.5997 6.93278ZM21.6332 3.23134V10.6343C21.6332 10.7172 21.5644 10.7872 21.4796 10.7872L19.7532 10.787C19.6685 10.787 19.5997 10.7172 19.5997 10.6343V10.0125C19.5997 9.96641 19.5415 9.94498 19.5104 9.97976C18.9444 10.6116 18.1241 10.9909 17.0322 10.9909C14.9356 10.9909 13.1999 9.22833 13.1999 6.93278C13.1999 4.63733 14.9338 2.86556 17.0304 2.86556C18.1222 2.86556 18.9444 3.25393 19.5104 3.88591C19.5415 3.92057 19.5997 3.89925 19.5997 3.85313V3.23134C19.5997 3.14846 19.6685 3.08133 19.7532 3.08133H21.4796C21.5644 3.08133 21.6332 3.14846 21.6332 3.23134ZM12.3835 3.08133V4.982C12.3835 5.06898 12.3082 5.13653 12.2194 5.13149C11.1938 5.07276 9.98749 5.56744 9.98749 7.10233V10.6343C9.98749 10.7172 9.91859 10.7855 9.83379 10.7855L8.10748 10.7852C8.02279 10.7852 7.9541 10.7172 7.9541 10.6343V3.23134C7.9541 3.14846 8.02279 3.08133 8.10759 3.08133H9.834C9.91881 3.08133 9.98749 3.14846 9.98749 3.23134V4.16891C9.98749 4.22186 10.06 4.23814 10.0842 4.19076C10.513 3.35099 11.3557 2.97229 12.2225 2.93111C12.3111 2.9269 12.3835 2.99477 12.3835 3.08133ZM2.02226 10.7843H0.153534C0.0687289 10.7843 -6.10352e-05 10.7172 -6.10352e-05 10.6343V0.150117C-6.10352e-05 0.067232 0.0687289 0 0.153534 0H6.43546C6.52026 0 6.58894 0.067232 6.58894 0.150117V1.88365C6.58894 1.96654 6.52026 2.03366 6.43546 2.03366H2.3288C2.2441 2.03366 2.17531 2.1009 2.17531 2.18368V4.4411C2.17531 4.52398 2.2441 4.59111 2.3288 4.59111H6.15331C6.23812 4.59111 6.3068 4.65823 6.3068 4.74112V6.47466C6.3068 6.55754 6.23812 6.62467 6.15331 6.62467H2.3288C2.2441 6.62467 2.17531 6.6919 2.17531 6.77468V10.6347C2.17531 10.7174 2.10685 10.7843 2.02226 10.7843Z" fill="white"/>
</g>
<defs>
<clipPath id="clip0_1241_142">
<rect width="82" height="11" fill="white"/>
</clipPath>
</defs>
</svg>
