<svg xmlns="http://www.w3.org/2000/svg" width="28" height="28" viewBox="0 0 28 28" fill="none">
  <path d="M23.2779 9.24002C23.2921 9.44572 23.2921 9.65142 23.2921 9.85902C23.2921 16.1846 18.4766 23.4798 9.67128 23.4798V23.4761C7.07016 23.4798 4.52307 22.7348 2.33334 21.3299C2.71157 21.3754 3.09169 21.3982 3.47276 21.3991C5.62835 21.401 7.72233 20.6778 9.41818 19.3459C7.3697 19.307 5.57337 17.9714 4.94584 16.0215C5.66343 16.1599 6.40281 16.1315 7.10713 15.939C4.8738 15.4878 3.26706 13.5256 3.26706 11.2468C3.26706 11.2259 3.26706 11.206 3.26706 11.1861C3.9325 11.5568 4.67758 11.7625 5.43971 11.7852C3.33625 10.3794 2.68787 7.58114 3.9581 5.39331C6.38859 8.38404 9.97462 10.2022 13.8242 10.3946C13.4384 8.73193 13.9654 6.98963 15.2091 5.82083C17.1372 4.00839 20.1696 4.10128 21.9821 6.02843C23.0542 5.81704 24.0817 5.42365 25.0221 4.86626C24.6647 5.97439 23.9168 6.91569 22.9177 7.51384C23.8666 7.40198 24.7936 7.14793 25.6667 6.76023C25.024 7.72333 24.2144 8.56225 23.2779 9.24002Z" fill="white"/>
</svg>