<svg width="174" height="29" viewBox="0 0 174 29" fill="none" xmlns="http://www.w3.org/2000/svg">
<path d="M22.7044 21.4738C22.7044 26.4856 19.2282 28.9916 12.2758 28.9916C7.78621 28.9916 4.61785 28.0585 2.77071 26.1924C0.92357 24.2996 0 21.5804 0 18.0348H3.15553C3.15553 20.1675 3.50187 21.8337 4.19455 23.0333C4.91288 24.233 5.92624 25.0594 7.23463 25.5126C8.54302 25.9658 10.2234 26.1924 12.2758 26.1924C14.6873 26.1924 16.496 25.8458 17.7018 25.1527C18.9332 24.4329 19.5489 23.2599 19.5489 21.6337C19.5489 20.4607 19.2026 19.501 18.5099 18.7546C17.8429 18.0081 17.0091 17.4216 16.0085 16.9951C15.008 16.5685 13.6611 16.102 11.9679 15.5955C11.6344 15.5155 11.1341 15.3689 10.4671 15.1556C8.36344 14.5158 6.67023 13.8893 5.38749 13.2761C4.13041 12.663 3.11705 11.8499 2.34741 10.8369C1.60342 9.82381 1.23143 8.53086 1.23143 6.95798C1.23143 4.71863 2.0139 2.99913 3.57883 1.79948C5.16943 0.599826 7.5938 0 10.8519 0C13.3661 0 15.4185 0.466532 17.0091 1.39959C18.6253 2.33266 19.7926 3.53231 20.5109 4.99855C21.2293 6.46479 21.5884 8.02434 21.5884 9.67719H18.4329C18.4329 7.41118 17.7146 5.70501 16.2779 4.55868C14.8669 3.38568 13.0583 2.79919 10.8519 2.79919C6.54195 2.79919 4.38696 4.15879 4.38696 6.878C4.38696 7.83773 4.63068 8.63749 5.11812 9.27731C5.63121 9.89046 6.34954 10.4236 7.27311 10.8768C8.22234 11.3034 9.54356 11.7966 11.2368 12.3564L12.3527 12.7163C14.6104 13.4361 16.419 14.1026 17.7787 14.7157C19.1384 15.3289 20.2929 16.182 21.2421 17.275C22.217 18.368 22.7044 19.7676 22.7044 21.4738Z" fill="white"/>
<path d="M32.5492 26.1924L39.2836 25.7925V28.5917L32.0105 28.9916C30.2403 29.0982 29.3552 28.1918 29.3552 26.2724V11.5566H25.1607V8.71747H29.3552V3.59896L32.5492 2.59925V8.71747H38.5139V11.5566H32.5492V26.1924Z" fill="white"/>
<path d="M42.888 23.0733C42.888 19.661 44.9788 17.7282 49.1606 17.275L56.78 16.5152C56.6774 14.7024 56.1643 13.3428 55.2407 12.4364C54.3428 11.53 53.0601 11.0768 51.3925 11.0768C49.8532 11.0768 48.5705 11.49 47.5443 12.3164C46.5438 13.1162 46.0435 14.3825 46.0435 16.1153H42.9649C42.9649 14.7024 43.2985 13.4094 43.9655 12.2364C44.6325 11.0368 45.5945 10.0904 46.8516 9.39727C48.1344 8.67748 49.648 8.31758 51.3925 8.31758C53.137 8.31758 54.6507 8.70414 55.9334 9.47725C57.2418 10.2237 58.2295 11.2767 58.8965 12.6363C59.5892 13.9959 59.9355 15.5555 59.9355 17.315V25.7925H62.7447V28.5917H59.3583C58.64 28.5917 58.0756 28.3918 57.6651 27.9919C57.2803 27.592 57.0879 27.0188 57.0879 26.2724V25.1927L57.5881 23.1133H56.6646C56.2541 24.8461 55.446 26.259 54.2402 27.3521C53.0601 28.4451 51.4053 28.9916 49.276 28.9916C46.8131 28.9916 45.1328 28.3784 44.2348 27.1521C43.3369 25.9258 42.888 24.5662 42.888 23.0733ZM46.0435 22.6734C46.0435 23.7931 46.3642 24.6595 47.0056 25.2727C47.6726 25.8858 48.5577 26.1924 49.6608 26.1924C51.0718 26.1924 52.3161 25.8858 53.3936 25.2727C54.4711 24.6328 55.3049 23.7664 55.8949 22.6734C56.485 21.5537 56.78 20.3141 56.78 18.9545L49.6993 19.7143C48.4422 19.8476 47.5187 20.1408 46.9286 20.594C46.3385 21.0206 46.0435 21.7137 46.0435 22.6734Z" fill="white"/>
<path d="M66.3936 11.0768C66.3936 9.184 67.2787 8.2776 69.0489 8.35757L79.6699 8.71747V11.5566L69.5491 11.1568V28.5917H66.3936V11.0768Z" fill="white"/>
<path d="M86.535 28.5917H83.3795V0.399902H101.158V3.19909H86.535V14.4358L99.3881 13.6361V16.5152L86.535 17.315V28.5917Z" fill="url(#paint0_linear_1215_122)"/>
<path d="M103.053 18.6346C103.053 16.7152 103.477 14.969 104.323 13.3961C105.17 11.8233 106.35 10.5836 107.864 9.67721C109.403 8.77081 111.173 8.3176 113.174 8.3176C115.15 8.3176 116.894 8.77081 118.408 9.67721C119.947 10.5836 121.14 11.8233 121.987 13.3961C122.833 14.969 123.257 16.7152 123.257 18.6346C123.257 20.5807 122.833 22.3402 121.987 23.9131C121.166 25.486 119.986 26.7256 118.446 27.632C116.907 28.5384 115.15 28.9916 113.174 28.9916C111.173 28.9916 109.403 28.5384 107.864 27.632C106.35 26.7256 105.17 25.486 104.323 23.9131C103.477 22.3402 103.053 20.5807 103.053 18.6346ZM106.209 18.6346C106.209 20.0475 106.478 21.3272 107.017 22.4735C107.556 23.6198 108.351 24.5262 109.403 25.1927C110.455 25.8592 111.712 26.1924 113.174 26.1924C114.611 26.1924 115.842 25.8592 116.869 25.1927C117.92 24.5262 118.716 23.6198 119.254 22.4735C119.793 21.3272 120.063 20.0475 120.063 18.6346C120.063 17.2483 119.793 15.9954 119.254 14.8757C118.716 13.7294 117.92 12.823 116.869 12.1565C115.842 11.49 114.611 11.1568 113.174 11.1568C110.994 11.1568 109.288 11.8632 108.056 13.2762C106.825 14.6891 106.209 16.4752 106.209 18.6346Z" fill="url(#paint1_linear_1215_122)"/>
<path d="M127.611 11.0768C127.611 9.18402 128.496 8.27762 130.267 8.35759L140.888 8.71749V11.5567L130.767 11.1568V28.5917H127.611V11.0768Z" fill="url(#paint2_linear_1215_122)"/>
<path d="M168.073 8.3176C170.023 8.3176 171.498 9.03739 172.499 10.477C173.499 11.8899 174 13.756 174 16.0754V28.5917H170.844V16.8751C170.844 14.8757 170.562 13.4228 169.998 12.5164C169.433 11.61 168.407 11.1568 166.919 11.1568C165.021 11.1568 163.533 11.9565 162.455 13.5561C161.378 15.129 160.839 17.235 160.839 19.8743V28.5917H157.683V16.8751C157.683 14.8757 157.401 13.4228 156.837 12.5164C156.272 11.61 155.246 11.1568 153.758 11.1568C151.86 11.1568 150.372 11.9565 149.294 13.5561C148.217 15.129 147.678 17.235 147.678 19.8743V28.5917H144.522V8.71749H147.678V12.0765L147.178 14.3559H148.063C148.935 10.3304 151.218 8.3176 154.913 8.3176C156.606 8.3176 157.927 8.86411 158.876 9.95713C159.851 11.0235 160.454 12.4897 160.685 14.3559H161.262C162.134 10.3304 164.405 8.3176 168.073 8.3176Z" fill="url(#paint3_linear_1215_122)"/>
<defs>
<linearGradient id="paint0_linear_1215_122" x1="128.69" y1="0.399902" x2="128.69" y2="28.9916" gradientUnits="userSpaceOnUse">
<stop stop-color="#DFC11E"/>
<stop offset="1" stop-color="#7D6119"/>
</linearGradient>
<linearGradient id="paint1_linear_1215_122" x1="128.69" y1="0.399902" x2="128.69" y2="28.9916" gradientUnits="userSpaceOnUse">
<stop stop-color="#DFC11E"/>
<stop offset="1" stop-color="#7D6119"/>
</linearGradient>
<linearGradient id="paint2_linear_1215_122" x1="128.69" y1="0.399902" x2="128.69" y2="28.9916" gradientUnits="userSpaceOnUse">
<stop stop-color="#DFC11E"/>
<stop offset="1" stop-color="#7D6119"/>
</linearGradient>
<linearGradient id="paint3_linear_1215_122" x1="128.69" y1="0.399902" x2="128.69" y2="28.9916" gradientUnits="userSpaceOnUse">
<stop stop-color="#DFC11E"/>
<stop offset="1" stop-color="#7D6119"/>
</linearGradient>
</defs>
</svg>
