<svg width="75" height="90" viewBox="0 0 75 90" fill="none" xmlns="http://www.w3.org/2000/svg">
<g clip-path="url(#clip0_13_188)">
<path d="M71.8426 30.681C71.3206 31.086 62.1046 36.279 62.1046 47.826C62.1046 61.182 73.8316 65.907 74.1826 66.024C74.1286 66.312 72.3196 72.495 67.9996 78.795C64.1476 84.339 60.1246 89.874 54.0046 89.874C47.8846 89.874 46.3096 86.319 39.2446 86.319C32.3596 86.319 29.9116 89.991 24.3136 89.991C18.7156 89.991 14.8096 84.861 10.3186 78.561C5.11657 71.163 0.913574 59.67 0.913574 48.762C0.913574 31.266 12.2896 21.987 23.4856 21.987C29.4346 21.987 34.3936 25.893 38.1286 25.893C41.6836 25.893 47.2276 21.753 53.9956 21.753C56.5606 21.753 65.7766 21.987 71.8426 30.681ZM50.7826 14.346C53.5816 11.025 55.5616 6.417 55.5616 1.809C55.5616 1.17 55.5076 0.522 55.3906 0C50.8366 0.171 45.4186 3.033 42.1516 6.822C39.5866 9.738 37.1926 14.346 37.1926 19.017C37.1926 19.719 37.3096 20.421 37.3636 20.646C37.6516 20.7 38.1196 20.763 38.5876 20.763C42.6736 20.763 47.8126 18.027 50.7826 14.346Z" fill="white"/>
</g>
<defs>
<clipPath id="clip0_13_188">
<rect width="73.26" height="90" fill="white" transform="translate(0.913574)"/>
</clipPath>
</defs>
</svg>
