<svg xmlns="http://www.w3.org/2000/svg" xmlns:xlink="http://www.w3.org/1999/xlink" viewBox="0,0,256,256" width="96px" height="96px">
  <g fill="none" fill-rule="nonzero" stroke="none" stroke-width="1" stroke-linecap="butt" stroke-linejoin="miter" stroke-miterlimit="10" stroke-dasharray="" stroke-dashoffset="0" font-family="none" font-weight="none" font-size="none" text-anchor="none" style="mix-blend-mode: normal">
    <g transform="scale(5.33333,5.33333)">
      <path d="M47.97,19.826c0.654,3.747 -9.547,8.655 -22.788,10.96c-13.238,2.306 -24.5,1.136 -25.153,-2.613c-0.653,-3.747 9.551,-8.654 22.79,-10.958c13.24,-2.308 24.499,-1.137 25.151,2.611z" fill="#ffffff"></path>
      <path d="M35.51,25.388l-0.068,-3.896h1.229v4.911h-1.766l-1.227,-4.03h-0.026l0.068,4.03h-1.221v-4.911h1.843l1.141,3.896z" fill="#000000"></path>
      <path d="M13.177,21.952l-0.68,4.503h-1.34l0.919,-4.963h2.208l0.917,4.963h-1.336l-0.661,-4.503z" fill="#000000"></path>
      <path d="M18.964,25.286l0.613,-3.794h2.024l0.107,4.963h-1.24l-0.033,-4.462h-0.026l-0.829,4.462h-1.259l-0.831,-4.462h-0.026l-0.031,4.462h-1.243l0.11,-4.963h2.025l0.612,3.794z" fill="#000000"></path>
      <path d="M9.067,25.055c0.049,0.12 0.034,0.275 0.011,0.368c-0.042,0.165 -0.154,0.333 -0.483,0.333c-0.312,0 -0.5,-0.179 -0.5,-0.45v-0.48h-1.332l-0.001,0.384c0,1.106 0.871,1.441 1.805,1.441c0.898,0 1.637,-0.307 1.754,-1.134c0.061,-0.429 0.015,-0.709 -0.005,-0.816c-0.209,-1.039 -2.093,-1.349 -2.233,-1.93c-0.024,-0.099 -0.017,-0.205 -0.005,-0.262c0.035,-0.158 0.143,-0.332 0.453,-0.332c0.29,0 0.461,0.18 0.461,0.45c0,0.091 0,0.307 0,0.307h1.237v-0.348c0,-1.081 -0.97,-1.25 -1.673,-1.25c-0.883,0 -1.604,0.292 -1.736,1.099c-0.036,0.223 -0.041,0.422 0.011,0.671c0.218,1.012 1.98,1.306 2.236,1.949z" fill="#000000"></path>
      <path d="M25.204,25.046c0.049,0.119 0.033,0.27 0.011,0.363c-0.041,0.165 -0.152,0.33 -0.479,0.33c-0.307,0 -0.494,-0.179 -0.494,-0.444l-0.001,-0.476h-1.318l-0.002,0.379c0,1.095 0.863,1.426 1.787,1.426c0.888,0 1.62,-0.303 1.736,-1.122c0.061,-0.426 0.018,-0.702 -0.004,-0.807c-0.208,-1.029 -2.073,-1.336 -2.211,-1.912c-0.024,-0.099 -0.017,-0.203 -0.005,-0.257c0.036,-0.16 0.142,-0.329 0.449,-0.329c0.288,0 0.455,0.175 0.455,0.444c0,0.09 0,0.304 0,0.304h1.228v-0.345c0,-1.07 -0.962,-1.237 -1.659,-1.237c-0.873,0 -1.588,0.288 -1.717,1.09c-0.036,0.22 -0.04,0.415 0.012,0.663c0.214,1.002 1.959,1.294 2.212,1.93z" fill="#000000"></path>
      <path d="M29.372,25.713c0.344,0 0.451,-0.238 0.475,-0.36c0.01,-0.054 0.013,-0.125 0.012,-0.19v-3.673h1.255v3.56c0.003,0.091 -0.006,0.279 -0.011,0.325c-0.088,0.927 -0.821,1.227 -1.732,1.227c-0.913,0 -1.646,-0.301 -1.733,-1.227c-0.004,-0.047 -0.013,-0.235 -0.011,-0.325v-3.56h1.254v3.672c0,0.064 0.002,0.137 0.012,0.19c0.028,0.121 0.132,0.361 0.479,0.361z" fill="#000000"></path>
      <path d="M39.725,25.66c0.359,0 0.485,-0.227 0.508,-0.359c0.009,-0.057 0.012,-0.126 0.011,-0.189v-0.72h-0.509v-0.724h1.76v1.332c-0.001,0.093 -0.003,0.162 -0.018,0.327c-0.082,0.903 -0.866,1.225 -1.745,1.225c-0.881,0 -1.663,-0.322 -1.747,-1.225c-0.014,-0.166 -0.016,-0.234 -0.018,-0.327l0.001,-2.089c0,-0.088 0.011,-0.244 0.021,-0.327c0.11,-0.928 0.862,-1.226 1.743,-1.226c0.88,0 1.651,0.297 1.742,1.226c0.016,0.158 0.011,0.327 0.011,0.327v0.166h-1.251v-0.278c0.001,0.001 -0.002,-0.118 -0.016,-0.189c-0.021,-0.11 -0.116,-0.362 -0.495,-0.362c-0.362,0 -0.467,0.238 -0.494,0.362c-0.015,0.065 -0.021,0.154 -0.021,0.234v2.27c-0.001,0.063 0.003,0.132 0.013,0.189c0.02,0.13 0.145,0.357 0.504,0.357z" fill="#000000"></path>
    </g>
  </g>
</svg>
