<svg width="70" height="90" viewBox="0 0 70 90" fill="none" xmlns="http://www.w3.org/2000/svg">
<g clip-path="url(#clip0_13_175)">
<path d="M0.173523 80.9488C0.376276 81.7396 1.06094 82.5479 2.0003 82.7504H4.83935L4.98417 82.8076V89.9716H6.75701V82.8076L6.91807 82.7504H9.75961C10.7095 82.5057 11.3794 81.7396 11.5786 80.9488V80.9313H0.173523V80.9488Z" fill="white"/>
<path d="M17.7199 89.9918H24.4645C25.4028 89.8052 26.1002 88.9785 26.2957 88.1782H15.8887C16.0829 88.9787 16.7906 89.8052 17.7199 89.9918Z" fill="white"/>
<path d="M17.7199 86.317H24.4645C25.4028 86.132 26.1002 85.305 26.2957 84.5037H15.8887C16.0829 85.3052 16.7906 86.132 17.7199 86.317Z" fill="white"/>
<path d="M17.7199 82.7409H24.4645C25.4028 82.5538 26.1002 81.7276 26.2957 80.9268H15.8887C16.0829 81.7276 16.7906 82.5538 17.7199 82.7409Z" fill="white"/>
<path d="M33.102 82.7236H39.3329C40.2722 82.4507 41.061 81.7351 41.2533 80.9418H31.3553V86.289H39.4565V88.1655L33.102 88.1705C32.1062 88.4481 31.2617 89.1168 30.8405 90L31.3553 89.9905H41.1971V84.5112H33.102V82.7236Z" fill="white"/>
<path d="M54.3064 89.9928C55.1911 89.6177 55.667 88.969 55.8493 88.2099H47.9796L47.9846 80.9393L46.2205 80.9443V89.9928H54.3064Z" fill="white"/>
<path d="M61.1796 82.7481H67.9263C68.8635 82.5618 69.5604 81.7348 69.7569 80.9348H59.3493C59.5438 81.7351 60.2509 82.5618 61.1796 82.7481Z" fill="white"/>
<path d="M59.6205 84.5179V89.9893H61.3751V86.3465H67.761V89.9893H69.5144V84.5274L59.6205 84.5179Z" fill="white"/>
<path d="M34.9687 63.0488L43.8269 13.2297C52.2704 13.2297 54.9336 14.1555 55.3182 17.9347C55.3182 17.9347 60.9823 15.8228 63.8391 11.5335C52.6911 6.36776 41.49 6.13479 41.49 6.13479L34.954 14.0956L34.9687 14.0946L28.4326 6.13354C28.4326 6.13354 17.2313 6.36676 6.08482 11.5325C8.9391 15.8218 14.6055 17.9337 14.6055 17.9337C14.9922 14.1543 17.6523 13.2284 26.039 13.2224L34.9687 63.0488Z" fill="white"/>
<path d="M34.9652 3.83533C43.9767 3.76642 54.2914 5.22939 64.8506 9.83154C66.2619 7.29138 66.6247 6.16875 66.6247 6.16875C55.082 1.60205 44.2724 0.0392023 34.9639 0C25.656 0.0392023 14.8469 1.6023 3.30571 6.16875C3.30571 6.16875 3.82058 7.55156 5.07855 9.83154C15.6357 5.22939 25.9522 3.76642 34.9639 3.83533H34.9652Z" fill="white"/>
</g>
<defs>
<clipPath id="clip0_13_175">
<rect width="69.5833" height="90" fill="white" transform="translate(0.173523)"/>
</clipPath>
</defs>
</svg>
